<mxfile host="app.diagrams.net" modified="2024-07-03T16:46:59.267Z" agent="Mozilla/5.0 (Macintosh; Intel Mac OS X 10_15_7) AppleWebKit/537.36 (KHTML, like Gecko) Chrome/126.0.0.0 Safari/537.36" etag="Hq-_UURfakbk_A5kOMPq" version="24.5.4" type="device">
  <diagram id="cdb5e136-1861-7ef1-5e76-c57f7e18aa8d" name="UML">
    <mxGraphModel dx="1590" dy="843" grid="1" gridSize="10" guides="1" tooltips="1" connect="1" arrows="1" fold="1" page="1" pageScale="1" pageWidth="1100" pageHeight="850" math="0" shadow="0">
      <root>
        <mxCell id="0" />
        <mxCell id="1" parent="0" />
        <mxCell id="4a63a70a29bb4ada-32" value="Department" style="swimlane;fontStyle=0;childLayout=stackLayout;horizontal=1;startSize=26;fillColor=#FFE6CC;horizontalStack=0;resizeParent=1;resizeParentMax=0;resizeLast=0;collapsible=1;marginBottom=0;swimlaneFillColor=#ffffff;align=center;strokeWidth=1;fontSize=13;strokeColor=#d79b00;" parent="1" vertex="1">
          <mxGeometry x="642" y="9" width="160" height="112" as="geometry" />
        </mxCell>
        <mxCell id="4a63a70a29bb4ada-33" value="id" style="shape=partialRectangle;top=0;left=0;right=0;bottom=1;align=left;verticalAlign=middle;fillColor=none;spacingLeft=34;spacingRight=4;overflow=hidden;rotatable=0;points=[[0,0.5],[1,0.5]];portConstraint=eastwest;dropTarget=0;fontStyle=5;" parent="4a63a70a29bb4ada-32" vertex="1">
          <mxGeometry y="26" width="160" height="30" as="geometry" />
        </mxCell>
        <mxCell id="4a63a70a29bb4ada-34" value="PK" style="shape=partialRectangle;top=0;left=0;bottom=0;fillColor=none;align=left;verticalAlign=middle;spacingLeft=4;spacingRight=4;overflow=hidden;rotatable=0;points=[];portConstraint=eastwest;part=1;fontStyle=1" parent="4a63a70a29bb4ada-33" vertex="1" connectable="0">
          <mxGeometry width="30" height="30" as="geometry" />
        </mxCell>
        <mxCell id="4a63a70a29bb4ada-43" value="name" style="shape=partialRectangle;top=0;left=0;right=0;bottom=0;align=left;verticalAlign=top;fillColor=none;spacingLeft=34;spacingRight=4;overflow=hidden;rotatable=0;points=[[0,0.5],[1,0.5]];portConstraint=eastwest;dropTarget=0;fontColor=#000000;" parent="4a63a70a29bb4ada-32" vertex="1">
          <mxGeometry y="56" width="160" height="28" as="geometry" />
        </mxCell>
        <mxCell id="4a63a70a29bb4ada-44" value="" style="shape=partialRectangle;top=0;left=0;bottom=0;fillColor=none;align=left;verticalAlign=top;spacingLeft=4;spacingRight=4;overflow=hidden;rotatable=0;points=[];portConstraint=eastwest;part=1;" parent="4a63a70a29bb4ada-43" vertex="1" connectable="0">
          <mxGeometry width="30" height="28" as="geometry" />
        </mxCell>
        <mxCell id="-yvy37UwG201HpsQHLqc-3" value="code" style="shape=partialRectangle;top=0;left=0;right=0;bottom=0;align=left;verticalAlign=top;fillColor=none;spacingLeft=34;spacingRight=4;overflow=hidden;rotatable=0;points=[[0,0.5],[1,0.5]];portConstraint=eastwest;dropTarget=0;fontColor=#000000;" parent="4a63a70a29bb4ada-32" vertex="1">
          <mxGeometry y="84" width="160" height="28" as="geometry" />
        </mxCell>
        <mxCell id="-yvy37UwG201HpsQHLqc-4" value="" style="shape=partialRectangle;top=0;left=0;bottom=0;fillColor=none;align=left;verticalAlign=top;spacingLeft=4;spacingRight=4;overflow=hidden;rotatable=0;points=[];portConstraint=eastwest;part=1;" parent="-yvy37UwG201HpsQHLqc-3" vertex="1" connectable="0">
          <mxGeometry width="30" height="28" as="geometry" />
        </mxCell>
        <mxCell id="4a63a70a29bb4ada-12" value="Course" style="swimlane;fontStyle=0;childLayout=stackLayout;horizontal=1;startSize=26;fillColor=#ffe6cc;horizontalStack=0;resizeParent=1;resizeParentMax=0;resizeLast=0;collapsible=1;marginBottom=0;swimlaneFillColor=#ffffff;align=center;strokeWidth=1;fontSize=13;strokeColor=#d79b00;" parent="1" vertex="1">
          <mxGeometry x="642" y="280" width="160" height="186" as="geometry" />
        </mxCell>
        <mxCell id="4a63a70a29bb4ada-13" value="id" style="shape=partialRectangle;top=0;left=0;right=0;bottom=1;align=left;verticalAlign=middle;fillColor=none;spacingLeft=34;spacingRight=4;overflow=hidden;rotatable=0;points=[[0,0.5],[1,0.5]];portConstraint=eastwest;dropTarget=0;fontStyle=5;" parent="4a63a70a29bb4ada-12" vertex="1">
          <mxGeometry y="26" width="160" height="34" as="geometry" />
        </mxCell>
        <mxCell id="4a63a70a29bb4ada-14" value="PK" style="shape=partialRectangle;top=0;left=0;bottom=0;fillColor=none;align=left;verticalAlign=middle;spacingLeft=4;spacingRight=4;overflow=hidden;rotatable=0;points=[];portConstraint=eastwest;part=1;fontStyle=1" parent="4a63a70a29bb4ada-13" vertex="1" connectable="0">
          <mxGeometry width="30" height="34" as="geometry" />
        </mxCell>
        <mxCell id="4a63a70a29bb4ada-15" value="department_id" style="shape=partialRectangle;top=0;left=0;right=0;bottom=0;align=left;verticalAlign=bottom;fillColor=none;spacingLeft=34;spacingRight=4;overflow=hidden;rotatable=0;points=[[0,0.5],[1,0.5]];portConstraint=eastwest;dropTarget=0;fontStyle=2" parent="4a63a70a29bb4ada-12" vertex="1">
          <mxGeometry y="60" width="160" height="26" as="geometry" />
        </mxCell>
        <mxCell id="4a63a70a29bb4ada-25" value="FK" style="shape=partialRectangle;top=0;left=0;bottom=0;fillColor=none;align=left;verticalAlign=top;spacingLeft=4;spacingRight=4;overflow=hidden;rotatable=0;points=[];portConstraint=eastwest;part=1;fontStyle=2" parent="4a63a70a29bb4ada-15" vertex="1" connectable="0">
          <mxGeometry width="30" height="26" as="geometry" />
        </mxCell>
        <mxCell id="-yvy37UwG201HpsQHLqc-9" value="name" style="shape=partialRectangle;top=0;left=0;right=0;bottom=0;align=left;verticalAlign=bottom;fillColor=none;spacingLeft=34;spacingRight=4;overflow=hidden;rotatable=0;points=[[0,0.5],[1,0.5]];portConstraint=eastwest;dropTarget=0;fontStyle=0" parent="4a63a70a29bb4ada-12" vertex="1">
          <mxGeometry y="86" width="160" height="26" as="geometry" />
        </mxCell>
        <mxCell id="-yvy37UwG201HpsQHLqc-10" value="" style="shape=partialRectangle;top=0;left=0;bottom=0;fillColor=none;align=left;verticalAlign=top;spacingLeft=4;spacingRight=4;overflow=hidden;rotatable=0;points=[];portConstraint=eastwest;part=1;fontStyle=2" parent="-yvy37UwG201HpsQHLqc-9" vertex="1" connectable="0">
          <mxGeometry width="30" height="26" as="geometry" />
        </mxCell>
        <mxCell id="5ecfb9fce94ea102-5" value="is_active" style="shape=partialRectangle;top=0;left=0;right=0;bottom=0;align=left;verticalAlign=bottom;fillColor=none;spacingLeft=34;spacingRight=4;overflow=hidden;rotatable=0;points=[[0,0.5],[1,0.5]];portConstraint=eastwest;dropTarget=0;fontStyle=0" parent="4a63a70a29bb4ada-12" vertex="1">
          <mxGeometry y="112" width="160" height="26" as="geometry" />
        </mxCell>
        <mxCell id="5ecfb9fce94ea102-6" value="" style="shape=partialRectangle;top=0;left=0;bottom=0;fillColor=none;align=left;verticalAlign=top;spacingLeft=4;spacingRight=4;overflow=hidden;rotatable=0;points=[];portConstraint=eastwest;part=1;fontStyle=2" parent="5ecfb9fce94ea102-5" vertex="1" connectable="0">
          <mxGeometry width="30" height="26" as="geometry" />
        </mxCell>
        <mxCell id="4f2698fda814bacb-1" value="textbook" style="shape=partialRectangle;top=0;left=0;right=0;bottom=0;align=left;verticalAlign=top;fillColor=none;spacingLeft=34;spacingRight=4;overflow=hidden;rotatable=0;points=[[0,0.5],[1,0.5]];portConstraint=eastwest;dropTarget=0;" parent="4a63a70a29bb4ada-12" vertex="1">
          <mxGeometry y="138" width="160" height="28" as="geometry" />
        </mxCell>
        <mxCell id="4f2698fda814bacb-2" value="" style="shape=partialRectangle;top=0;left=0;bottom=0;fillColor=none;align=left;verticalAlign=top;spacingLeft=4;spacingRight=4;overflow=hidden;rotatable=0;points=[];portConstraint=eastwest;part=1;" parent="4f2698fda814bacb-1" vertex="1" connectable="0">
          <mxGeometry width="30" height="28" as="geometry" />
        </mxCell>
        <mxCell id="on3MbaLIVr-WT1FecVor-1" value="credits" style="shape=partialRectangle;top=0;left=0;right=0;bottom=0;align=left;verticalAlign=bottom;fillColor=none;spacingLeft=34;spacingRight=4;overflow=hidden;rotatable=0;points=[[0,0.5],[1,0.5]];portConstraint=eastwest;dropTarget=0;fontStyle=0" parent="4a63a70a29bb4ada-12" vertex="1">
          <mxGeometry y="166" width="160" height="20" as="geometry" />
        </mxCell>
        <mxCell id="on3MbaLIVr-WT1FecVor-2" value="" style="shape=partialRectangle;top=0;left=0;bottom=0;fillColor=none;align=left;verticalAlign=top;spacingLeft=4;spacingRight=4;overflow=hidden;rotatable=0;points=[];portConstraint=eastwest;part=1;fontStyle=2" parent="on3MbaLIVr-WT1FecVor-1" vertex="1" connectable="0">
          <mxGeometry width="30" height="20" as="geometry" />
        </mxCell>
        <mxCell id="4a63a70a29bb4ada-26" value="Student" style="swimlane;fontStyle=0;childLayout=stackLayout;horizontal=1;startSize=26;fillColor=#ffe6cc;horizontalStack=0;resizeParent=1;resizeParentMax=0;resizeLast=0;collapsible=1;marginBottom=0;swimlaneFillColor=#ffffff;align=center;strokeWidth=1;fontSize=13;strokeColor=#d79b00;" parent="1" vertex="1">
          <mxGeometry x="980" y="72" width="160" height="212" as="geometry" />
        </mxCell>
        <mxCell id="4a63a70a29bb4ada-27" value="id" style="shape=partialRectangle;top=0;left=0;right=0;bottom=1;align=left;verticalAlign=middle;fillColor=none;spacingLeft=34;spacingRight=4;overflow=hidden;rotatable=0;points=[[0,0.5],[1,0.5]];portConstraint=eastwest;dropTarget=0;fontStyle=5;" parent="4a63a70a29bb4ada-26" vertex="1">
          <mxGeometry y="26" width="160" height="30" as="geometry" />
        </mxCell>
        <mxCell id="4a63a70a29bb4ada-28" value="PK" style="shape=partialRectangle;top=0;left=0;bottom=0;fillColor=none;align=left;verticalAlign=middle;spacingLeft=4;spacingRight=4;overflow=hidden;rotatable=0;points=[];portConstraint=eastwest;part=1;fontStyle=1" parent="4a63a70a29bb4ada-27" vertex="1" connectable="0">
          <mxGeometry width="30" height="30" as="geometry" />
        </mxCell>
        <mxCell id="-yvy37UwG201HpsQHLqc-7" value="name" style="shape=partialRectangle;top=0;left=0;right=0;bottom=0;align=left;verticalAlign=top;fillColor=none;spacingLeft=34;spacingRight=4;overflow=hidden;rotatable=0;points=[[0,0.5],[1,0.5]];portConstraint=eastwest;dropTarget=0;fontStyle=0" parent="4a63a70a29bb4ada-26" vertex="1">
          <mxGeometry y="56" width="160" height="26" as="geometry" />
        </mxCell>
        <mxCell id="-yvy37UwG201HpsQHLqc-8" value="" style="shape=partialRectangle;top=0;left=0;bottom=0;fillColor=none;align=left;verticalAlign=top;spacingLeft=4;spacingRight=4;overflow=hidden;rotatable=0;points=[];portConstraint=eastwest;part=1;fontStyle=2" parent="-yvy37UwG201HpsQHLqc-7" vertex="1" connectable="0">
          <mxGeometry width="30" height="26" as="geometry" />
        </mxCell>
        <mxCell id="113bda5a66023eaa-7" value="birthdate" style="shape=partialRectangle;top=0;left=0;right=0;bottom=0;align=left;verticalAlign=top;fillColor=none;spacingLeft=34;spacingRight=4;overflow=hidden;rotatable=0;points=[[0,0.5],[1,0.5]];portConstraint=eastwest;dropTarget=0;fontStyle=0" parent="4a63a70a29bb4ada-26" vertex="1">
          <mxGeometry y="82" width="160" height="26" as="geometry" />
        </mxCell>
        <mxCell id="113bda5a66023eaa-8" value="" style="shape=partialRectangle;top=0;left=0;bottom=0;fillColor=none;align=left;verticalAlign=top;spacingLeft=4;spacingRight=4;overflow=hidden;rotatable=0;points=[];portConstraint=eastwest;part=1;fontStyle=2" parent="113bda5a66023eaa-7" vertex="1" connectable="0">
          <mxGeometry width="30" height="26" as="geometry" />
        </mxCell>
        <mxCell id="gdFRTFLbcHOm93ldruGc-1" value="enrollment_date" style="shape=partialRectangle;top=0;left=0;right=0;bottom=0;align=left;verticalAlign=top;fillColor=none;spacingLeft=34;spacingRight=4;overflow=hidden;rotatable=0;points=[[0,0.5],[1,0.5]];portConstraint=eastwest;dropTarget=0;fontStyle=0" parent="4a63a70a29bb4ada-26" vertex="1">
          <mxGeometry y="108" width="160" height="26" as="geometry" />
        </mxCell>
        <mxCell id="gdFRTFLbcHOm93ldruGc-2" value="" style="shape=partialRectangle;top=0;left=0;bottom=0;fillColor=none;align=left;verticalAlign=top;spacingLeft=4;spacingRight=4;overflow=hidden;rotatable=0;points=[];portConstraint=eastwest;part=1;fontStyle=2" parent="gdFRTFLbcHOm93ldruGc-1" vertex="1" connectable="0">
          <mxGeometry width="30" height="26" as="geometry" />
        </mxCell>
        <mxCell id="jaCknDaOb99eUsvZtsdg-74" value="graduation_date" style="shape=partialRectangle;top=0;left=0;right=0;bottom=0;align=left;verticalAlign=top;fillColor=none;spacingLeft=34;spacingRight=4;overflow=hidden;rotatable=0;points=[[0,0.5],[1,0.5]];portConstraint=eastwest;dropTarget=0;fontStyle=0" parent="4a63a70a29bb4ada-26" vertex="1">
          <mxGeometry y="134" width="160" height="26" as="geometry" />
        </mxCell>
        <mxCell id="jaCknDaOb99eUsvZtsdg-75" value="" style="shape=partialRectangle;top=0;left=0;bottom=0;fillColor=none;align=left;verticalAlign=top;spacingLeft=4;spacingRight=4;overflow=hidden;rotatable=0;points=[];portConstraint=eastwest;part=1;fontStyle=2" parent="jaCknDaOb99eUsvZtsdg-74" vertex="1" connectable="0">
          <mxGeometry width="30" height="26" as="geometry" />
        </mxCell>
        <mxCell id="5ecfb9fce94ea102-3" value="national_id" style="shape=partialRectangle;top=0;left=0;right=0;bottom=0;align=left;verticalAlign=top;fillColor=none;spacingLeft=34;spacingRight=4;overflow=hidden;rotatable=0;points=[[0,0.5],[1,0.5]];portConstraint=eastwest;dropTarget=0;fontStyle=0" parent="4a63a70a29bb4ada-26" vertex="1">
          <mxGeometry y="160" width="160" height="26" as="geometry" />
        </mxCell>
        <mxCell id="5ecfb9fce94ea102-4" value="" style="shape=partialRectangle;top=0;left=0;bottom=0;fillColor=none;align=left;verticalAlign=top;spacingLeft=4;spacingRight=4;overflow=hidden;rotatable=0;points=[];portConstraint=eastwest;part=1;fontStyle=2" parent="5ecfb9fce94ea102-3" vertex="1" connectable="0">
          <mxGeometry width="30" height="26" as="geometry" />
        </mxCell>
        <mxCell id="AV330qxZJO8WnukwR470-5" value="gpa" style="shape=partialRectangle;top=0;left=0;right=0;bottom=0;align=left;verticalAlign=top;fillColor=none;spacingLeft=34;spacingRight=4;overflow=hidden;rotatable=0;points=[[0,0.5],[1,0.5]];portConstraint=eastwest;dropTarget=0;fontStyle=0" parent="4a63a70a29bb4ada-26" vertex="1">
          <mxGeometry y="186" width="160" height="26" as="geometry" />
        </mxCell>
        <mxCell id="AV330qxZJO8WnukwR470-6" value="" style="shape=partialRectangle;top=0;left=0;bottom=0;fillColor=none;align=left;verticalAlign=top;spacingLeft=4;spacingRight=4;overflow=hidden;rotatable=0;points=[];portConstraint=eastwest;part=1;fontStyle=2" parent="AV330qxZJO8WnukwR470-5" vertex="1" connectable="0">
          <mxGeometry width="30" height="26" as="geometry" />
        </mxCell>
        <mxCell id="5ecfb9fce94ea102-1" style="edgeStyle=none;rounded=0;html=1;startArrow=ERmandOne;startFill=0;endArrow=ERoneToMany;endFill=0;jettySize=auto;orthogonalLoop=1;strokeColor=#000066;fontSize=13;entryX=0.5;entryY=0;entryDx=0;entryDy=0;" parent="1" source="4a63a70a29bb4ada-32" target="4a63a70a29bb4ada-12" edge="1">
          <mxGeometry relative="1" as="geometry">
            <mxPoint x="774.0799999999999" y="154.01" as="sourcePoint" />
            <mxPoint x="947" y="101" as="targetPoint" />
          </mxGeometry>
        </mxCell>
        <mxCell id="5ecfb9fce94ea102-2" style="edgeStyle=orthogonalEdgeStyle;rounded=0;html=1;entryX=1.019;entryY=0.867;startArrow=none;startFill=0;endArrow=none;endFill=0;jettySize=auto;orthogonalLoop=1;strokeColor=none;fontSize=13;dashed=1;entryDx=0;entryDy=0;entryPerimeter=0;" parent="1" target="4a63a70a29bb4ada-33" edge="1">
          <mxGeometry relative="1" as="geometry">
            <mxPoint x="824" y="168" as="sourcePoint" />
            <Array as="points">
              <mxPoint x="824" y="114" />
              <mxPoint x="825" y="95" />
              <mxPoint x="744" y="95" />
              <mxPoint x="744" y="61" />
            </Array>
          </mxGeometry>
        </mxCell>
      </root>
    </mxGraphModel>
  </diagram>
</mxfile>
